<mxfile host="app.diagrams.net" modified="2023-05-23T08:57:26.296Z" agent="Mozilla/5.0 (X11; Linux x86_64) AppleWebKit/537.36 (KHTML, like Gecko) Chrome/113.0.0.0 Safari/537.36" version="21.3.2" etag="kCXmB0B_1YUmDu0Y55IK" type="github">
  <diagram name="페이지-1" id="YLGcTbwf6y7c5icAZU3k">
    <mxGraphModel>
      <root>
        <mxCell id="0" />
        <mxCell id="1" parent="0" />
      </root>
    </mxGraphModel>
  </diagram>
</mxfile>
